<svg width="48" height="48" viewBox="0 0 48 48" fill="none" xmlns="http://www.w3.org/2000/svg">
<rect width="48" height="48" rx="24" fill="#0B0D13"/>
<path d="M18.4646 36.824C17.6486 36.824 16.9166 36.608 16.2686 36.176C15.6446 35.72 15.2006 35.048 14.9366 34.16C14.6966 33.248 14.7326 32.12 15.0446 30.776L19.0766 13.46C19.1966 13.028 19.1966 12.728 19.0766 12.56C18.9806 12.392 18.7646 12.296 18.4286 12.272L17.3486 12.164C16.9886 12.14 16.8326 11.984 16.8806 11.696C16.9286 11.48 17.0966 11.348 17.3846 11.3C18.2486 11.156 19.0166 10.988 19.6886 10.796C20.3606 10.58 20.9006 10.304 21.3086 9.968C21.5006 9.824 21.6806 9.752 21.8486 9.752C22.1366 9.752 22.2446 9.932 22.1726 10.292L18.8966 24.44C18.8726 24.608 18.9086 24.704 19.0046 24.728C19.1006 24.752 19.1846 24.692 19.2566 24.548C20.5766 22.028 21.7526 20.3 22.7846 19.364C23.8406 18.404 24.8246 17.924 25.7366 17.924C26.6246 17.924 27.3206 18.296 27.8246 19.04C28.3526 19.784 28.6166 20.876 28.6166 22.316C28.6166 23.684 28.4126 25.064 28.0046 26.456C27.6206 27.824 27.0806 29.132 26.3846 30.38C25.7126 31.628 24.9326 32.732 24.0446 33.692C23.1806 34.652 22.2686 35.42 21.3086 35.996C20.3486 36.548 19.4006 36.824 18.4646 36.824ZM18.5726 35.924C19.1966 35.924 19.8566 35.648 20.5526 35.096C21.2486 34.52 21.9206 33.764 22.5686 32.828C23.2406 31.868 23.8406 30.8 24.3686 29.624C24.8966 28.424 25.3166 27.2 25.6286 25.952C25.9406 24.68 26.0966 23.456 26.0966 22.28C26.0966 21.368 26.0006 20.732 25.8086 20.372C25.6166 19.988 25.2806 19.796 24.8006 19.796C24.2726 19.796 23.6726 20.12 23.0006 20.768C22.3286 21.416 21.6446 22.28 20.9486 23.36C20.2526 24.416 19.6046 25.568 19.0046 26.816C18.4046 28.064 17.9246 29.3 17.5646 30.524C17.2046 31.724 17.0246 32.792 17.0246 33.728C17.0246 35.192 17.5406 35.924 18.5726 35.924Z" fill="white"/>
<path d="M29.3038 22.993L30.1158 19.962H27.2668L27.5258 18.975H30.3818L30.9768 16.728H28.1278L28.3938 15.741H31.2498L31.9988 12.92H33.0278L32.2648 15.741H34.6098L35.3588 12.92H36.3878L35.6248 15.741H38.4738L38.2078 16.728H35.3658L34.7568 18.975H37.6058L37.3398 19.962H34.4978L33.6858 22.993H32.6638L33.4688 19.962H31.1378L30.3258 22.993H29.3038ZM31.4038 18.975H33.7418L34.3368 16.728H32.0058L31.4038 18.975Z" fill="#AF64B2"/>
</svg>
